<?xml version="1.0" encoding="utf-8"?>
<!-- Generator: Adobe Illustrator 16.2.1, SVG Export Plug-In . SVG Version: 6.00 Build 0)  -->
<!DOCTYPE svg PUBLIC "-//W3C//DTD SVG 1.1//EN" "http://www.w3.org/Graphics/SVG/1.1/DTD/svg11.dtd">
<svg version="1.1" id="Layer_1" xmlns="http://www.w3.org/2000/svg" xmlns:xlink="http://www.w3.org/1999/xlink" x="0px" y="0px"
	 width="144px" height="252px" viewBox="0 0 144 252" style="enable-background:new 0 0 144 252;" xml:space="preserve">
<style type="text/css">
<![CDATA[
	.st0{clip-path:url(#SVGID_2_);fill:#231F20;}
]]>
</style>
<g>
	<defs>
		<path id="SVGID_1_" d="M87.1,96.7l14.1,14.1c0.5,0.5,0.8,1.1,0.8,1.8c0,0.7-0.2,1.3-0.8,1.7c-0.5,0.5-1,0.8-1.8,0.8
			s-1.3-0.2-1.7-0.8l-1.8-1.7L82,126v15l-10.6-10.5L61,140.8L42,156l15.1-19l10.4-10.4L57,116h15l13.3-14l-1.8-1.8
			c-0.5-0.5-0.8-1-0.8-1.7s0.2-1.3,0.8-1.8c0.5-0.5,1.1-0.7,1.8-0.7C86,96,86.6,96.2,87.1,96.7"/>
	</defs>
	<clipPath id="SVGID_2_">
		<use xlink:href="#SVGID_1_"  style="overflow:visible;"/>
	</clipPath>
	<rect x="37" y="91" class="st0" width="70" height="70"/>
</g>
</svg>
